<svg xmlns="http://www.w3.org/2000/svg" width="70" height="70" viewBox="0 0 70 70">
  <g id="그룹_1328" data-name="그룹 1328" transform="translate(-1580 -306)">
    <rect id="사각형_1482" data-name="사각형 1482" width="70" height="70" rx="22" transform="translate(1580 306)" fill="#ada9bb"/>
    <g id="그룹_1321" data-name="그룹 1321" transform="translate(1599 317)">
      <path id="패스_2822" data-name="패스 2822" d="M23.946,110.43a7.88,7.88,0,1,0-7.88-7.88,7.889,7.889,0,0,0,7.88,7.88m0-13.913a6.033,6.033,0,1,1-6.033,6.033,6.04,6.04,0,0,1,6.033-6.033" transform="translate(-8.86 -94.67)" fill="#f6f6fa"/>
      <path id="패스_2823" data-name="패스 2823" d="M42.813,130.53a13.222,13.222,0,0,1,3.446,1.726,8.884,8.884,0,0,1,1.835-.932,15.12,15.12,0,0,0-3.351-2.031,9.538,9.538,0,0,1-1.931,1.236" transform="translate(-23.609 -113.763)" fill="#f6f6fa"/>
      <path id="패스_2824" data-name="패스 2824" d="M1.85,142.939a13.26,13.26,0,0,1,9.119-12.409,9.538,9.538,0,0,1-1.931-1.236A15.106,15.106,0,0,0,0,142.939H0v1.843H20.246a8.9,8.9,0,0,1-.988-1.843Z" transform="translate(0 -113.763)" fill="#f6f6fa"/>
      <path id="패스_2825" data-name="패스 2825" d="M51.955,134.4a8.109,8.109,0,1,0,8.109,8.109,8.118,8.118,0,0,0-8.109-8.109m0,14.206a6.1,6.1,0,1,1,6.1-6.1,6.1,6.1,0,0,1-6.1,6.1" transform="translate(-24.178 -116.578)" fill="#f6f6fa"/>
      <path id="패스_2826" data-name="패스 2826" d="M57.471,146.012v-3.434H55.46v3.434H52.026v2.012H55.46v3.433h2.011v-3.433H60.9v-2.012Z" transform="translate(-28.689 -121.089)" fill="#f6f6fa"/>
    </g>
    <text id="Registration" transform="translate(1615 365)" fill="#f6f6fa" font-size="10" font-family="Barlow-SemiBold, Barlow" font-weight="600"><tspan x="-27.16" y="0">Registration</tspan></text>
  </g>
</svg>
