<svg xmlns="http://www.w3.org/2000/svg" width="70" height="70" viewBox="0 0 70 70">
  <g id="그룹_1334" data-name="그룹 1334" transform="translate(-1580 -466)">
    <rect id="사각형_1484" data-name="사각형 1484" width="70" height="70" rx="22" transform="translate(1580 466)" fill="#23509f"/>
    <g id="그룹_1323" data-name="그룹 1323" transform="translate(1599 474)">
      <path id="패스_2827" data-name="패스 2827" d="M30.066,310.942l-.26-.6H26.683v-3.889A10.962,10.962,0,0,0,15.762,295.48h-.107A10.962,10.962,0,0,0,4.734,306.457v3.889h-3.1l-.269.57C-.4,314.67-.043,318.213.221,320.8c.466,4.564,2.238,8.048,5.269,10.353a16.712,16.712,0,0,0,10.218,3.021,16.713,16.713,0,0,0,10.218-3.021c3.031-2.305,4.8-5.789,5.269-10.353a18.807,18.807,0,0,0-1.13-9.856M6.718,306.457a8.976,8.976,0,0,1,8.937-8.993h.107a8.976,8.976,0,0,1,8.937,8.993v3.889H6.718Zm22.5,14.14c-1.028,10.086-8.908,11.591-13.513,11.591S3.223,330.683,2.2,320.6a16.383,16.383,0,0,1,.713-8.267H28.49a17.382,17.382,0,0,1,.731,8.267" transform="translate(0 -295.48)" fill="#f6f6fa"/>
      <path id="패스_2828" data-name="패스 2828" d="M25.423,348.651l-1.329-5.745H21.874v7.307H23.3v-4.942q0-.213-.005-.6t-.005-.593l1.373,6.132h1.482l1.383-6.132q0,.208-.005.593t-.005.6v4.942h1.423v-7.307h-2.2Z" transform="translate(-11.78 -321.02)" fill="#f6f6fa"/>
      <path id="패스_2829" data-name="패스 2829" d="M41.555,351.017l-1.18-3.986H38.8l1.983,5.641A.745.745,0,0,1,40.7,353a.762.762,0,0,1-.23.352.717.717,0,0,1-.317.114,2.183,2.183,0,0,1-.4.015l-.179-.01V354.6q.228.014.342.017l.3,0a1.611,1.611,0,0,0,1.249-.369,7.448,7.448,0,0,0,.848-1.906l1.854-5.314h-1.5Z" transform="translate(-20.897 -323.242)" fill="#f6f6fa"/>
    </g>
    <text id="My_IMCVP" data-name="My IMCVP" transform="translate(1615 525)" fill="#f6f6fa" font-size="10" font-family="Barlow-SemiBold, Barlow" font-weight="600"><tspan x="-20.765" y="0">My IM</tspan><tspan y="0" letter-spacing="-0.009em">C</tspan><tspan y="0" letter-spacing="-0.011em">V</tspan><tspan y="0">P</tspan></text>
  </g>
</svg>
