<svg id="eNSIG7FLxth1" xmlns="http://www.w3.org/2000/svg" xmlns:xlink="http://www.w3.org/1999/xlink" viewBox="0 0 160 160" shape-rendering="geometricPrecision" text-rendering="geometricPrecision">
<style><![CDATA[
#eNSIG7FLxth6_to {animation: eNSIG7FLxth6_to__to 1000ms linear infinite reverse forwards}@keyframes eNSIG7FLxth6_to__to { 0% {transform: translate(1732.202283px,2303.117531px)} 100% {transform: translate(1630.40783px,2303.117531px)}}
]]></style>
<g transform="translate(-1616-2237)"><g transform="translate(1616 2237)"><circle r="80" transform="translate(80 80)" fill="#257fe6" stroke-width="10"/><circle r="75" transform="translate(80 80)" fill="none" stroke="#e3edfd" stroke-width="10"/></g><g id="eNSIG7FLxth6_to" transform="translate(1630.40783,2303.117531)"><g transform="translate(0,0)"><path d="M35.233,49.6c-.297782.000579-.584321-.113679-.8-.319-.21242-.199763-.332881-.478405-.332881-.77s.120461-.570237.332881-.77L46.972,35.716L34.43,23.693c-.212367-.199587-.332809-.478065-.332809-.7695s.120442-.569913.332809-.7695c.450815-.42542,1.155185-.42542,1.606,0L49.381,34.947c.212367.199587.332809.478065.332809.7695s-.120442.569913-.332809.7695L36.036,49.279c-.215792.205144-.502258.319372-.8.319" transform="translate(-34.097-21.835)" fill="none" stroke="#f6f6fa" stroke-width="3"/><path d="M35.233,49.6c-.297782.000579-.584321-.113679-.8-.319-.21242-.199763-.332881-.478405-.332881-.77s.120461-.570237.332881-.77L46.972,35.716L34.43,23.693c-.212367-.199587-.332809-.478065-.332809-.7695s.120442-.569913.332809-.7695c.450815-.42542,1.155185-.42542,1.606,0L49.381,34.947c.212367.199587.332809.478065.332809.7695s-.120442.569913-.332809.7695L36.036,49.279c-.215792.205144-.502258.319372-.8.319" transform="translate(-18.519-21.835)" fill="none" stroke="#f6f6fa" stroke-width="3"/></g></g></g></svg>
