<svg id="그룹_1498" data-name="그룹 1498" xmlns="http://www.w3.org/2000/svg" xmlns:xlink="http://www.w3.org/1999/xlink" width="12" height="11" viewBox="0 0 12 11">
  <defs>
    <clipPath id="clip-path">
      <rect id="사각형_1645" data-name="사각형 1645" width="12" height="11" fill="none"/>
    </clipPath>
  </defs>
  <g id="그룹_1497" data-name="그룹 1497" clip-path="url(#clip-path)">
    <path id="패스_2939" data-name="패스 2939" d="M81.179,108.17v4.215a.731.731,0,0,0,.731.731h2.2a.059.059,0,0,0,.059-.059v-2.7a.41.41,0,0,1,.41-.41h1.472a.41.41,0,0,1,.41.41v2.7a.059.059,0,0,0,.059.059h2.2a.731.731,0,0,0,.731-.731v-4.209a.058.058,0,0,0-.021-.045l-4.08-3.424a.059.059,0,0,0-.075,0L81.2,108.125a.059.059,0,0,0-.021.045" transform="translate(-79.11 -102.025)" fill="#484554"/>
    <path id="패스_2940" data-name="패스 2940" d="M12.258,4.957,10.165,3.2a.059.059,0,0,1-.021-.045V1.3a.41.41,0,0,0-.41-.41H8.869a.41.41,0,0,0-.41.41v.34a.059.059,0,0,1-.1.045L6.465.1a.41.41,0,0,0-.527,0L.146,4.957A.41.41,0,0,0,.1,5.534l.413.492a.41.41,0,0,0,.577.051L6.164,1.815a.059.059,0,0,1,.075,0l5.079,4.262a.41.41,0,0,0,.577-.051l.413-.492a.41.41,0,0,0-.051-.577" transform="translate(0 0)" fill="#484554"/>
  </g>
</svg>
