<svg xmlns="http://www.w3.org/2000/svg" width="50" height="50" viewBox="0 0 50 50">
  <g id="그룹_1518" data-name="그룹 1518" transform="translate(-1511 -560)">
    <g id="그룹_1521" data-name="그룹 1521">
      <g id="패스_2942" data-name="패스 2942" transform="translate(1511 560)" fill="#a1f05e">
        <path d="M 25 49.5 C 21.69230079650879 49.5 18.48381042480469 48.85229110717773 15.46364974975586 47.57487106323242 C 12.54625988006592 46.3409309387207 9.926079750061035 44.57432174682617 7.675879955291748 42.32411956787109 C 5.425680160522461 40.07392120361328 3.659070014953613 37.45373916625977 2.425129890441895 34.53635025024414 C 1.147709965705872 31.51618957519531 0.5 28.30769920349121 0.5 25 C 0.5 21.69230079650879 1.147709965705872 18.48381042480469 2.425129890441895 15.46364974975586 C 3.659070014953613 12.54625988006592 5.425680160522461 9.926079750061035 7.675879955291748 7.675879955291748 C 9.926079750061035 5.425680160522461 12.54625988006592 3.659070014953613 15.46364974975586 2.425129890441895 C 18.48381042480469 1.147709965705872 21.69230079650879 0.5 25 0.5 C 28.30769920349121 0.5 31.51618957519531 1.147709965705872 34.53635025024414 2.425129890441895 C 37.45373916625977 3.659070014953613 40.07392120361328 5.425680160522461 42.32411956787109 7.675879955291748 C 44.57432174682617 9.926079750061035 46.3409309387207 12.54625988006592 47.57487106323242 15.46364974975586 C 48.85229110717773 18.48381042480469 49.5 21.69230079650879 49.5 25 C 49.5 27.06160926818848 49.24332046508789 29.10660934448242 48.73709106445312 31.07819938659668 C 48.24359130859375 33.00019073486328 47.51065826416016 34.86249160766602 46.55865859985352 36.61336898803711 C 44.68292999267578 40.06314086914062 41.93365859985352 43.09336853027344 38.60805892944336 45.37649154663086 C 34.73968887329102 48.03564071655273 29.90700912475586 49.5 25 49.5 Z" stroke="none"/>
        <path d="M 25 1 C 21.75958061218262 1 18.61661911010742 1.634418487548828 15.65842056274414 2.885631561279297 C 12.80064010620117 4.094371795654297 10.23387908935547 5.825000762939453 8.029441833496094 8.029441833496094 C 5.825000762939453 10.23387908935547 4.094371795654297 12.80064010620117 2.885631561279297 15.65842056274414 C 1.634418487548828 18.61661911010742 1 21.75958061218262 1 25 C 1 28.24041938781738 1.634418487548828 31.38338088989258 2.885631561279297 34.34157943725586 C 4.094371795654297 37.19935989379883 5.825000762939453 39.76612091064453 8.029441833496094 41.97055816650391 C 10.23387908935547 44.17499923706055 12.80064010620117 45.90563201904297 15.65842056274414 47.1143684387207 C 18.61661911010742 48.36558151245117 21.75958061218262 49 25 49 C 29.80686950683594 49 34.53895950317383 47.56687927246094 38.32506942749023 44.96427917480469 C 41.58594131469727 42.72560882568359 44.28116989135742 39.75531768798828 46.11940002441406 36.37453079223633 C 48.03081893920898 32.85910797119141 49 29.03215980529785 49 25 C 49 21.75958061218262 48.36558151245117 18.61661911010742 47.1143684387207 15.65842056274414 C 45.90563201904297 12.80064010620117 44.17499923706055 10.23387908935547 41.97055816650391 8.029441833496094 C 39.76612091064453 5.825000762939453 37.19935989379883 4.094371795654297 34.34157943725586 2.885631561279297 C 31.38338088989258 1.634418487548828 28.24041938781738 1 25 1 M 25 0 C 38.80712127685547 0 50 11.19287872314453 50 25 C 50 33.56041717529297 45.69746017456055 41.11590957641602 38.89105224609375 45.78870010375977 C 35.11592102050781 48.38375091552734 30.2467098236084 50 25 50 C 11.19287872314453 50 0 38.80712127685547 0 25 C 0 11.19287872314453 11.19287872314453 0 25 0 Z" stroke="none" fill="#a1f05e"/>
      </g>
      <g id="그룹_1513" data-name="그룹 1513" transform="translate(714.135 -1110.85) rotate(45)">
        <line id="선_572" data-name="선 572" y1="15" transform="translate(1781.3 610.5)" fill="none" stroke="#fff" stroke-linecap="round" stroke-width="4"/>
        <line id="선_573" data-name="선 573" y1="15" transform="translate(1788.5 618.3) rotate(90)" fill="none" stroke="#fff" stroke-linecap="round" stroke-width="4"/>
      </g>
    </g>
  </g>
</svg>
