<svg xmlns="http://www.w3.org/2000/svg" xmlns:xlink="http://www.w3.org/1999/xlink" width="153.977" height="99.24" viewBox="0 0 153.977 99.24">
  <defs>
    <clipPath id="clip-path">
      <rect id="사각형_1427" data-name="사각형 1427" width="153.977" height="99.24" fill="none"/>
    </clipPath>
  </defs>
  <g id="그룹_1221" data-name="그룹 1221" clip-path="url(#clip-path)">
    <path id="패스_2769" data-name="패스 2769" d="M63.127,16.827A21.583,21.583,0,1,0,84.709,38.41,21.582,21.582,0,0,0,63.127,16.827" transform="translate(13.862 5.614)" fill="#e25c72"/>
    <path id="패스_2770" data-name="패스 2770" d="M103.433,88.05a4.031,4.031,0,0,1-3.22-6.451,62.581,62.581,0,0,0,0-75.148,4.03,4.03,0,0,1,6.446-4.84,70.64,70.64,0,0,1,0,84.828,4.025,4.025,0,0,1-3.226,1.611" transform="translate(33.168 0)" fill="#e25c72"/>
    <path id="패스_2771" data-name="패스 2771" d="M91.919,71.034A4.031,4.031,0,0,1,88.7,64.583a39.914,39.914,0,0,0,0-47.926,4.03,4.03,0,1,1,6.446-4.84,47.973,47.973,0,0,1,0,57.606,4.025,4.025,0,0,1-3.226,1.611" transform="translate(29.326 3.405)" fill="#e25c72"/>
    <path id="패스_2772" data-name="패스 2772" d="M80.4,56.24a4.031,4.031,0,0,1-3.219-6.451,20.3,20.3,0,0,0,0-24.261A4.03,4.03,0,1,1,83.63,20.69a28.4,28.4,0,0,1,0,33.939A4.025,4.025,0,0,1,80.4,56.24" transform="translate(25.484 6.366)" fill="#e25c72"/>
    <path id="패스_2773" data-name="패스 2773" d="M17.376,88.05a4.025,4.025,0,0,1-3.226-1.611,70.641,70.641,0,0,1,0-84.828A4.03,4.03,0,0,1,20.6,6.451a62.581,62.581,0,0,0,0,75.148,4.031,4.031,0,0,1-3.219,6.451" transform="translate(0 0)" fill="#e25c72"/>
    <path id="패스_2774" data-name="패스 2774" d="M27.755,71.034a4.025,4.025,0,0,1-3.226-1.611,47.973,47.973,0,0,1,0-57.606,4.03,4.03,0,0,1,6.446,4.84,39.914,39.914,0,0,0,0,47.927,4.031,4.031,0,0,1-3.219,6.451" transform="translate(4.978 3.405)" fill="#e25c72"/>
    <path id="패스_2775" data-name="패스 2775" d="M38.274,56.24a4.025,4.025,0,0,1-3.226-1.611,28.4,28.4,0,0,1,0-33.939,4.03,4.03,0,1,1,6.446,4.839,20.3,20.3,0,0,0,0,24.261,4.031,4.031,0,0,1-3.219,6.451" transform="translate(9.817 6.366)" fill="#e25c72"/>
    <path id="패스_2776" data-name="패스 2776" d="M69.763,34.142l-14.9-8.6a1.659,1.659,0,0,0-2.489,1.438V44.183a1.659,1.659,0,0,0,2.489,1.438l14.9-8.6a1.66,1.66,0,0,0,0-2.875" transform="translate(17.475 8.446)" fill="#fff"/>
    <path id="패스_2777" data-name="패스 2777" d="M28.808,57.63h6.916V74.5H46.518v5.511H28.808Z" transform="translate(9.612 19.229)" fill="#e25c72"/>
    <rect id="사각형_1426" data-name="사각형 1426" width="6.931" height="22.382" transform="translate(59.863 76.859)" fill="#e25c72"/>
    <path id="패스_2778" data-name="패스 2778" d="M52.39,57.63h7.23l5.037,16.107L69.63,57.63h7.019l-8.31,22.382h-7.5Z" transform="translate(17.481 19.229)" fill="#e25c72"/>
    <path id="패스_2779" data-name="패스 2779" d="M72.5,57.63H91.031v4.779h-11.6v3.557H90.192v4.565H79.428v4.413H91.367v5.068H72.5Z" transform="translate(24.19 19.229)" fill="#e25c72"/>
  </g>
</svg>
